<?xml version="1.0" encoding="iso-8859-1"?>
<!-- Uploaded to: SVG Repo, www.svgrepo.com, Generator: SVG Repo Mixer Tools -->
<svg height="800px" width="800px" version="1.1" id="Layer_1" xmlns="http://www.w3.org/2000/svg" xmlns:xlink="http://www.w3.org/1999/xlink" 
	 viewBox="0 0 512.001 512.001" xml:space="preserve">
<path style="fill:#3C66B1;" d="M48.42,237.27c-19.593-6.512-39.902,6.073-39.902,25.369v162.225v1.848v61.009h471.374L48.42,237.27z
	"/>
<g>
	<polygon style="fill:#315591;" points="7.516,448.362 7.516,487.721 337.062,487.721 283.276,448.362 	"/>
	<polygon style="fill:#315591;" points="283.404,455.281 12.029,451.822 12.209,425.879 283.583,429.338 	"/>
	<path style="fill:#315591;" d="M211.364,42.066l-43.659,47.327l56.344,125.686l64.851-16.345
		c-25.923-22.352-42.525-105.475-42.525-105.475l-33.651-52.396L211.364,42.066z"/>
</g>
<path style="fill:#ACD4F3;" d="M53.153,151.91L168.892,38.238c13.767-13.521,36.361-10.858,46.184,5.445l15.429,25.605
	c-15.57,34.366-9.706,75.912,17.978,104.1c16.704,17.007,38.417,26.152,60.621,27.461l18.877,34.978l18.96,35.132l14.055,26.045
	l18.965,35.142l19.646,36.404c3.121,5.784,8.337,10.155,14.576,12.219l15.192,5.024c11.427,3.779,23.137,6.575,34.924,9.008
	c50.206,10.363,38.612,93.269,38.612,93.269H321.354c-16.724,0-32.747-6.721-44.465-18.653L8.309,195.955l43.526-42.749
	L53.153,151.91z"/>
<path style="fill:#4E8FE3;" d="M333.995,454.301c-16.724,0-32.747-6.721-44.465-18.653L31.822,172.894L8.309,195.988L276.889,469.45
	c11.719,11.932,27.741,18.653,44.465,18.653h181.559c0,0,2.043-14.618,0.698-32.344L333.995,454.301z"/>
<polygon style="fill:#3C66B1;" points="218.112,318.168 332.788,323.89 300.258,258.82 153.172,251.48 "/>
<path style="fill:#ACD4F3;" d="M368.465,381.242h47.232l-1.432-0.474c-6.24-2.064-11.455-6.435-14.576-12.219l-19.646-36.404
	l-18.965-35.142l-14.055-26.045l-18.96-35.132l-18.877-34.978c-18.054-1.064-35.782-7.31-50.757-18.749l28.543,52.739
	L368.465,381.242z"/>
<path d="M510.271,441.35c-4.944-32.236-20.198-51.884-44.116-56.82c-13.848-2.859-24.357-5.568-34.074-8.781l-5.458-1.805
	c-0.003-0.001-0.006-0.002-0.01-0.003l-9.725-3.216c-4.414-1.459-8.06-4.515-10.269-8.607l-90.503-167.7
	c-1.252-2.321-3.616-3.827-6.248-3.984c-6.437-0.379-12.743-1.482-18.821-3.243c-18.86-18.066-31.253-74.48-34.487-95.107
	c-0.163-1.045-0.544-2.046-1.115-2.935l-33.651-52.398c-0.01-0.015-0.022-0.029-0.032-0.045c-5.856-9.56-15.595-15.85-26.769-17.266
	c-11.469-1.453-22.811,2.392-31.118,10.55L48.135,143.663c-0.223,0.219-0.429,0.447-0.62,0.687
	c-0.243,0.187-0.476,0.389-0.699,0.609L3.291,187.707c-1.44,1.414-2.26,3.342-2.277,5.361c-0.018,2.018,0.766,3.96,2.18,5.4
	l27.076,27.568c-5.765,0.969-11.26,3.186-16.019,6.619C5.194,239.188,0,249.217,0,260.17v162.226c0,0.314,0.024,0.62,0.062,0.923
	C0.024,423.622,0,423.93,0,424.243v61.008c0,4.204,3.407,7.61,7.61,7.61h314.058h157.316h24.243c3.796,0,7.011-2.797,7.537-6.556
	C510.889,485.413,513.777,464.21,510.271,441.35z M172.135,260.045l123.526,6.165l27.602,49.586l-101.785-5.079L172.135,260.045z
	 M124.817,211.453c-1.207-6.329-4.253-28.836,10.008-42.843l81.321-79.869c-1.839,10.969-1.888,22.202-0.068,33.324
	c3.347,20.45,12.785,39.066,27.291,53.837c1.968,2.004,4.017,3.912,6.131,5.73c0.093,0.219,0.195,0.436,0.31,0.649l30.43,56.225
	l6.696,12.029l-130.398-6.508L124.817,211.453z M339.193,269.224l-8.807,28.075l-9.478-17.026l9.125-28.022L339.193,269.224z
	 M310.809,262.13l-11.051-19.853c0.203,0.087,0.406,0.175,0.608,0.262c5.265,2.265,10.538,4.525,14.511,6.213
	c0.088,0.038,0.166,0.071,0.254,0.108L310.809,262.13z M349.281,287.916l7.779,14.413l-8.605,27.43l-7.867-14.132L349.281,287.916z
	 M378.1,341.316l-16.576-2.367l5.623-17.926L378.1,341.316z M387.09,357.975l6.137,11.37c0.808,1.498,1.725,2.915,2.733,4.254
	h-23.101l-10.677-19.181L387.09,357.975z M320.05,233.752l-0.189,0.579c-8.218-3.498-21.776-9.34-32.029-13.774l-12.316-22.758
	c2.92,1.241,5.907,2.331,8.941,3.291c0.36,0.141,0.729,0.252,1.102,0.336c6.195,1.882,12.592,3.195,19.128,3.859L320.05,233.752z
	 M264.453,174.074c-3.614-2.658-7.043-5.597-10.225-8.837c-21.657-22.051-29.349-53.378-21.154-82.756l8.711,13.563
	C243.241,104.739,250.447,144.674,264.453,174.074z M174.539,40.849c4.963-4.874,11.719-7.174,18.54-6.309
	c6.617,0.838,12.372,4.575,15.793,10.252l11.313,18.772c-0.289,0.213-0.572,0.44-0.836,0.7l-95.189,93.49
	c-11.329,11.127-14.91,25.31-15.588,37.02l-44.366-45.56L174.539,40.849z M53.348,159.877l246.204,252.829
	c13.085,13.437,31.348,21.145,50.104,21.145h74.932c4.203,0,7.61-3.406,7.61-7.61s-3.407-7.61-7.61-7.61h-74.932
	c-14.674,0-28.962-6.029-39.2-16.543l-73.379-75.354l94.912,4.737l29.747,53.44c1.343,2.413,3.888,3.91,6.649,3.91h54.743
	l4.174,1.38c10.296,3.404,21.33,6.252,35.776,9.236c21.959,4.533,29.975,26.697,32.572,47.223H333.994
	c-14.587,0-28.815-5.969-39.037-16.376L41.147,171.859L53.348,159.877z M15.22,260.17c0-6.092,2.818-11.479,7.935-15.171
	c6.104-4.403,14.313-5.516,21.957-2.976c0.373,0.124,0.75,0.208,1.126,0.272l17.086,17.397v123.28
	c0,13.252,7.365,24.36,15.106,32.386l-63.209-0.51V260.17z M102.612,415.553c-7.522-4.633-24.068-17.892-24.068-32.581V275.188
	L217.313,416.48L102.612,415.553z M15.22,477.641v-15.284h216.849c4.203,0,7.61-3.406,7.61-7.61c0-4.204-3.407-7.61-7.61-7.61H15.22
	v-17.07l217.161,1.755l39.392,40.108c2.009,2.046,4.152,3.939,6.386,5.71L15.22,477.641L15.22,477.641z M496.316,477.641h-17.333
	H321.667c-14.587,0-28.815-5.968-39.037-16.375l-39.478-40.195c-0.74-1.606-2.019-2.909-3.612-3.678L19.385,193.232l10.904-10.709
	l253.81,258.423c13.064,13.302,31.25,20.932,49.895,20.932h162.729C496.849,468.156,496.601,473.666,496.316,477.641z"/>
</svg>